<svg width="70" height="71" viewBox="0 0 70 71" fill="none" xmlns="http://www.w3.org/2000/svg">
<g clip-path="url(#clip0_1_4864)">
<path d="M68.6058 18.1087C68.2101 16.6195 67.4301 15.2603 66.344 14.1673C65.258 13.0742 63.9038 12.2856 62.4172 11.8803C56.9445 10.4087 35.0695 10.4087 35.0695 10.4087C35.0695 10.4087 13.1945 10.4087 7.72173 11.8803C6.23509 12.2856 4.88096 13.0742 3.79488 14.1673C2.7088 15.2603 1.92885 16.6195 1.53309 18.1087C0.0694582 23.6053 0.069458 35.0678 0.069458 35.0678C0.069458 35.0678 0.0694582 46.5303 1.53309 52.0269C1.92885 53.5161 2.7088 54.8752 3.79488 55.9683C4.88096 57.0614 6.23509 57.85 7.72173 58.2553C13.1945 59.7269 35.0695 59.7269 35.0695 59.7269C35.0695 59.7269 56.9445 59.7269 62.4172 58.2553C63.9038 57.85 65.258 57.0614 66.344 55.9683C67.4301 54.8752 68.2101 53.5161 68.6058 52.0269C70.0695 46.5303 70.0695 35.0678 70.0695 35.0678C70.0695 35.0678 70.0695 23.6053 68.6058 18.1087Z" fill="#FF0302"/>
<path d="M27.9104 45.4767V24.6597L46.2058 35.0682L27.9104 45.4767Z" fill="#FEFEFE"/>
</g>
<defs>
<clipPath id="clip0_1_4864">
<rect width="70" height="70" fill="white" transform="translate(0 0.0678711)"/>
</clipPath>
</defs>
</svg>
